<svg width="48" height="49" viewBox="0 0 48 49" fill="none" xmlns="http://www.w3.org/2000/svg">
<path d="M43.9688 20.4163C43.8946 17.7396 43.6452 16.033 42.8052 14.5766C41.6104 12.5054 39.4588 11.3527 35.1554 9.04736L31.1554 6.90453C27.6442 5.02352 25.8886 4.08301 24 4.08301C22.1114 4.08301 20.3558 5.02352 16.8446 6.90453L12.8446 9.04736C8.54126 11.3527 6.38958 12.5054 5.1948 14.5766C4 16.6479 4 19.2254 4 24.3802V24.6191C4 29.7739 4 32.3515 5.1948 34.4228C6.38958 36.4941 8.54126 37.6466 12.8446 39.952L16.8446 42.0948C20.3558 43.9757 22.1114 44.9163 24 44.9163C25.8886 44.9163 27.6442 43.9757 31.1554 42.0948L35.1554 39.952C39.4588 37.6466 41.6104 36.4941 42.8052 34.4228C43.6452 32.9663 43.8946 31.2598 43.9688 28.583" stroke="#4F8398" stroke-width="4" stroke-linecap="round"/>
<path d="M42 15.3125L34 19.3958M34 19.3958C34 19.3958 33.3906 19.7069 33 19.9062C29.4852 21.7003 24 24.5 24 24.5M34 19.3958V26.5417M34 19.3958L15 9.1875M24 24.5L6 15.3125M24 24.5V43.8958" stroke="#4F8398" stroke-width="4" stroke-linecap="round"/>
</svg>
