<svg width="45" height="44" viewBox="0 0 45 44" fill="none" xmlns="http://www.w3.org/2000/svg">
<path d="M37.5 10.267C37.5 9.24025 37.4992 8.72648 37.2949 8.33431C37.1152 7.98935 36.8293 7.70909 36.4766 7.53331C36.0756 7.3335 35.5494 7.3335 34.4992 7.3335H10.4993C9.44917 7.3335 8.92464 7.3335 8.52356 7.53331C8.17076 7.70909 7.88413 7.98935 7.70436 8.33431C7.5 8.72648 7.5 9.24025 7.5 10.267V11.6187C7.5 12.0671 7.5 12.2914 7.55181 12.5024C7.59774 12.6895 7.67368 12.8682 7.77649 13.0322C7.8924 13.2172 8.05483 13.376 8.37891 13.6929L17.8715 22.9746C18.1958 23.2916 18.3571 23.4492 18.473 23.6344C18.5758 23.7983 18.6528 23.9776 18.6987 24.1648C18.75 24.3736 18.75 24.5952 18.75 25.0347V33.7537C18.75 35.3252 18.75 36.1115 19.0884 36.5847C19.3841 36.9979 19.8401 37.2737 20.3503 37.3474C20.9346 37.4317 21.6538 37.0806 23.0914 36.3779L24.5914 35.6446C25.1934 35.3503 25.4936 35.2025 25.7136 34.9829C25.908 34.7888 26.0569 34.5557 26.1474 34.2989C26.25 34.0083 26.25 33.6785 26.25 33.0203V25.0483C26.25 24.5998 26.25 24.3758 26.3017 24.1648C26.3477 23.9776 26.4236 23.7983 26.5266 23.6344C26.6417 23.4505 26.8026 23.2932 27.1224 22.9804L27.129 22.9746L36.6216 13.6929C36.9457 13.3758 37.107 13.2172 37.2231 13.0322C37.3258 12.8682 37.4029 12.6895 37.4488 12.5024C37.5 12.2936 37.5 12.0716 37.5 11.6323V10.267Z" stroke="#4F8398" stroke-width="4" stroke-linecap="round" stroke-linejoin="round"/>
</svg>
