<svg width="39" height="38" viewBox="0 0 39 38" fill="none" xmlns="http://www.w3.org/2000/svg">
<path d="M19.5 17.4027C23.8814 17.4027 27.4333 14.0665 27.4333 9.95112C27.4333 5.83571 23.8814 2.49951 19.5 2.49951C15.1185 2.49951 11.5666 5.83571 11.5666 9.95112C11.5666 14.0665 15.1185 17.4027 19.5 17.4027Z" stroke="#3E778C" stroke-opacity="0.9" stroke-width="4"/>
<path d="M2.5 30.7253C2.5 26.307 6.30458 22.7253 10.999 22.7253C13.8405 22.7253 16.9347 22.7253 19.5 22.7253C22.0653 22.7253 25.1595 22.7253 28.001 22.7253C32.6954 22.7253 36.5 26.307 36.5 30.7253V31.4995C36.5 33.7086 34.5972 35.4995 32.25 35.4995H6.75C4.40279 35.4995 2.5 33.7086 2.5 31.4995V30.7253Z" stroke="#3E778C" stroke-opacity="0.9" stroke-width="4"/>
</svg>
