<svg width="146" height="172" viewBox="0 0 146 172" fill="none" xmlns="http://www.w3.org/2000/svg">
<path fill-rule="evenodd" clip-rule="evenodd" d="M106.859 62.0329C103.908 61.7509 101.579 61.187 96.453 61.187C92.2594 61.187 86.2019 61.4689 76.4168 62.5968C78.2806 63.0197 82.7849 63.8656 86.8232 63.8656C87.1338 63.8656 87.5998 63.8656 87.9104 63.8656C90.7062 63.7247 96.6083 63.1607 102.821 63.1607C107.636 63.1607 112.451 63.4427 116.334 64.7115C116.334 64.5706 116.334 64.5706 116.334 64.5706C114.159 63.5837 109.81 62.3148 106.859 62.0329ZM86.5126 76.2722C94.2785 74.8624 101.268 74.4394 106.859 74.4394C109.966 74.4394 112.606 74.5804 114.625 74.7214C114.625 74.5804 114.625 74.2984 114.625 74.1574C110.742 73.4525 106.704 73.1706 103.132 73.1706C98.0062 73.1706 93.8126 73.5935 92.7253 73.5935C90.8615 73.7345 88.8424 73.7345 86.8232 73.8755C86.8232 74.7214 86.6679 75.5673 86.5126 76.2722ZM104.064 71.1968C108.879 71.6197 112.451 72.1837 114.936 72.7476C115.091 71.9017 115.247 70.9148 115.247 69.9279C112.606 69.364 108.723 68.8001 104.064 68.8001C102.976 68.8001 101.889 68.8001 100.647 68.9411C96.9189 69.223 92.57 69.646 87.7551 70.0689C87.5998 70.4919 87.4445 70.9148 87.2892 71.4788C92.4147 71.3378 97.2296 71.0558 100.957 71.0558C102.2 71.0558 103.287 71.0558 104.064 71.1968ZM66.0104 31.5804C63.9913 31.4394 62.1275 31.4394 60.2636 31.4394C47.3721 31.4394 38.8296 34.2591 34.4807 36.2329C34.636 36.9378 34.636 37.6427 34.7913 38.3476C43.7998 34.4001 53.5849 32.5673 65.2338 32.5673C70.0487 32.5673 75.1743 32.8493 80.7658 33.4132C83.4062 33.6952 86.0466 33.8361 88.5317 33.8361C102.2 33.8361 112.761 30.3115 116.489 28.7607C116.489 28.4788 116.334 28.3378 116.334 28.0558C109.189 31.2984 100.491 32.4263 89.4636 32.4263C82.6296 32.5673 74.8636 32.1443 66.0104 31.5804ZM97.2296 58.5083C81.2317 58.6493 64.6126 62.0329 57.3126 62.0329C57.3126 62.0329 57.3126 62.0329 57.1572 62.0329C57.4679 62.1738 57.6232 62.1738 57.7785 62.1738C58.2445 62.3148 71.9126 65.9804 85.5806 65.9804C85.8913 65.9804 86.2019 65.9804 86.5126 65.9804C92.57 65.8394 98.9381 64.9935 105.461 64.9935C109.034 64.9935 112.606 65.2755 116.179 66.1214C116.179 65.8394 116.334 65.6984 116.334 65.4165C114.004 64.8525 110.121 64.2886 104.84 64.2886C102.355 64.2886 99.7147 64.4296 96.7636 64.7115C94.1232 64.9935 91.3275 65.1345 88.5317 65.1345C77.1934 65.1345 65.2338 63.3017 63.37 62.4558L62.9041 62.1738H63.37C63.37 62.1738 75.9509 60.623 81.0764 60.0591C83.4062 59.7771 88.3764 59.0722 94.4338 59.0722C101.423 59.0722 109.81 59.9181 116.8 63.3017C116.955 62.8788 116.955 62.5968 117.11 62.1738C114.47 60.764 108.257 58.3673 97.6955 58.3673C97.3849 58.5083 97.2296 58.5083 97.2296 58.5083ZM65.2338 89.8066C65.0785 88.9607 64.9232 88.1148 64.7679 87.4099C62.7487 87.2689 60.8849 87.2689 59.1764 87.2689C46.1296 87.2689 37.8977 90.0886 34.4807 91.6394C34.636 92.4853 34.7913 93.1902 34.9466 93.8952C39.9168 91.6394 48.3041 89.8066 60.2636 89.8066C61.8168 89.6656 63.5253 89.6656 65.2338 89.8066ZM66.3211 36.7968C64.3019 36.6558 62.2828 36.6558 60.4189 36.6558C47.5275 36.6558 39.1402 39.3345 35.1019 41.0263C35.1019 41.1673 35.1019 41.4493 35.2572 41.5902C42.5572 38.3476 51.4104 37.5017 59.487 37.5017C63.836 37.5017 67.8743 37.7837 71.4466 38.0656C82.6296 38.9115 96.7636 39.4755 96.7636 39.4755V39.7575C88.8423 40.6034 81.5423 43.846 64.1466 46.2427C52.4977 47.9345 41.936 48.2165 36.3445 48.2165C36.3445 48.7804 36.4998 49.2034 36.4998 49.6263C51.4104 49.4853 74.2424 45.2558 83.0955 43.282C92.7253 41.1673 101.734 40.6034 110.742 39.7575C114.47 39.4755 116.644 38.9115 117.887 38.3476C117.732 37.5017 117.732 36.6558 117.576 35.8099C111.674 38.0656 105.151 38.7706 97.5402 38.7706C88.687 38.3476 78.5913 37.5017 66.3211 36.7968ZM89.3083 30.8755C90.0849 30.8755 90.7062 30.8755 91.4828 30.8755C104.996 30.8755 113.383 27.9148 116.023 26.9279C115.713 25.6591 115.402 24.6722 115.247 23.9673C107.791 28.1968 99.2487 29.6066 90.8615 29.6066C79.2126 29.6066 67.4083 27.0689 58.0892 25.8001C56.3807 25.5181 54.5168 25.5181 52.9636 25.5181C45.0424 25.5181 38.2083 27.6329 33.8594 29.4656C33.8594 30.0296 33.8594 30.8755 34.0147 31.8624C43.0232 28.6197 50.6338 27.6329 57.6232 27.6329C69.2721 27.6329 78.7466 30.7345 89.3083 30.8755ZM89.3083 54.7017C67.253 56.5345 54.5168 60.623 45.9743 60.764C48.9253 62.0329 61.5062 66.9673 74.3977 68.3771C76.2615 68.5181 77.97 68.6591 79.6785 68.6591C86.9785 68.6591 93.5019 67.2493 101.423 67.2493C105.617 67.2493 110.276 67.6722 115.713 68.9411C115.713 68.5181 115.868 68.2361 115.868 67.8132C112.917 67.2492 108.102 66.5443 102.044 66.5443C100.025 66.5443 97.8509 66.6853 95.6764 66.8263C89.7743 67.2493 84.8041 67.9542 79.2126 67.9542C71.6019 67.9542 62.9041 66.6853 49.7019 61.6099L49.236 61.4689L49.8572 61.3279C49.8572 61.3279 63.2147 59.2132 72.9998 57.8034C78.1253 57.0984 86.0466 55.9706 94.4338 55.9706C102.51 55.9706 110.898 57.0984 117.421 60.623C117.576 59.9181 117.576 59.3542 117.732 58.6492C114.936 57.0984 108.568 54.4197 96.9189 54.4197C94.4338 54.4197 91.9487 54.4197 89.3083 54.7017ZM63.6806 54.8427C52.187 56.2525 44.4211 56.3935 40.3828 56.3935C38.3636 56.3935 37.2764 56.3935 36.9658 56.2525C36.9658 56.2525 36.9658 56.2525 36.9658 56.3935C36.9658 56.9574 36.9658 57.3804 36.8104 57.9443C37.1211 57.9443 37.8977 57.9443 39.2955 57.9443C44.1104 57.9443 55.4487 57.3804 75.4849 53.9968C82.9402 52.7279 89.3083 52.164 94.8998 52.164C107.015 52.164 114.781 54.5607 118.042 55.8296C118.042 55.5476 118.042 55.4066 118.198 55.1247C110.276 52.305 102.821 51.4591 95.5211 51.4591C84.4934 51.6001 74.087 53.7148 63.6806 54.8427ZM116.489 97.7017C116.489 97.4197 116.334 97.1378 116.334 96.7148C113.227 96.9968 108.568 97.2788 102.51 97.2788C98.4721 97.2788 93.8126 97.1378 88.5317 96.8558C88.687 97.4197 88.687 98.1247 88.8423 98.6886C91.7934 98.9706 94.7445 99.1116 97.5402 99.1116C104.996 99.1116 111.985 98.4066 116.489 97.7017ZM107.015 82.4755C109.81 82.4755 112.451 82.6165 114.47 82.8984C114.47 82.3345 114.47 81.7706 114.47 81.3476C112.14 81.0656 109.81 80.9247 107.791 80.9247C105.151 80.9247 102.821 81.0656 100.647 81.2066C96.9189 81.4886 92.2594 82.4755 86.6679 83.0394C86.6679 83.6034 86.8232 84.0263 86.8232 84.5902C92.7253 83.8853 98.6275 82.7574 104.685 82.4755C105.461 82.6165 106.238 82.4755 107.015 82.4755ZM114.47 79.6558C114.47 79.2329 114.47 78.8099 114.47 78.246C112.761 77.964 110.898 77.823 109.034 77.823C101.889 77.823 93.8126 79.6558 86.5126 80.9247C86.5126 81.2066 86.5126 81.4886 86.5126 81.6296C94.4338 80.7837 102.976 79.2329 109.5 79.2329C111.364 79.2329 113.072 79.3738 114.47 79.6558ZM107.636 76.5542C110.587 76.5542 112.761 76.8361 114.625 76.9771C114.625 76.6952 114.625 76.4132 114.625 76.1312C112.606 75.8493 110.587 75.7083 108.568 75.7083C101.113 75.7083 93.1913 77.2591 86.5126 78.387V78.5279C86.5126 78.6689 86.5126 78.8099 86.5126 78.9509C90.8615 78.246 95.2104 77.4001 101.113 76.6952C103.598 76.6952 105.772 76.5542 107.636 76.5542ZM99.404 96.5738C106.238 96.5738 111.985 96.0099 115.868 95.446C115.713 94.882 115.713 94.3181 115.557 93.7542C112.761 94.0361 109.5 94.1771 105.772 94.1771C100.647 94.1771 94.7445 93.8952 87.9104 93.4722C88.0658 94.4591 88.2211 95.305 88.3764 96.1509H88.5317C92.4147 96.4329 95.987 96.5738 99.404 96.5738ZM114.781 88.2558C114.781 87.6919 114.625 87.2689 114.625 86.705C113.849 86.705 112.917 86.846 111.83 86.846C107.636 87.1279 102.51 87.4099 97.8509 87.4099C95.987 87.4099 94.2785 87.4099 92.8806 87.2689V86.987C92.8806 86.987 101.889 85.5771 108.879 85.5771C109.655 85.5771 110.432 85.5771 111.208 85.5771C112.451 85.7181 113.538 85.7181 114.47 85.7181C114.47 85.2952 114.47 84.7312 114.315 84.3083C110.898 83.7443 107.791 83.6033 105.151 83.6033C98.4721 83.6033 93.3466 84.7312 86.6679 85.2952C86.8232 86.564 86.9785 87.8329 87.1338 88.9607C90.8615 89.3837 94.4338 89.5247 97.5402 89.5247C105.772 89.8066 111.83 88.8197 114.781 88.2558ZM115.247 91.9214C115.091 91.3574 115.091 90.9345 115.091 90.3706C112.761 90.9345 109.189 91.3575 103.908 91.3575C99.7147 91.3575 94.2785 91.0755 87.4445 90.2296C87.5998 90.7935 87.5998 91.3574 87.7551 91.9214C93.5019 92.4853 98.3168 92.7673 102.355 92.7673C108.257 92.9083 112.451 92.4853 115.247 91.9214ZM66.1658 93.6132C66.0104 92.9083 65.8551 92.3443 65.6998 91.6394C65.6998 91.4984 65.5445 91.3574 65.5445 91.2165C63.0594 91.0755 60.8849 90.9345 58.7104 90.9345C45.9743 90.9345 38.5189 94.1771 35.4126 95.7279C35.5679 96.4329 35.5679 96.5738 35.8785 97.2788C43.4892 94.3181 50.6338 93.3312 57.6232 93.3312C60.4189 93.1902 63.37 93.3312 66.1658 93.6132ZM66.787 96.4329C66.6317 95.8689 66.6317 95.446 66.4764 94.882C63.836 94.7411 61.3509 94.6001 59.0211 94.6001C46.9062 94.6001 39.4509 96.7148 36.1892 97.9837C36.3445 98.6886 36.6551 99.3935 36.9658 100.239C46.2849 97.2788 54.3615 96.2919 61.6615 96.2919C63.37 96.2919 65.0785 96.2919 66.787 96.4329ZM59.6424 97.8427C48.3041 97.8427 41.1594 99.8165 37.2764 101.226C37.2764 101.367 37.2764 101.508 37.4317 101.508C38.519 101.085 45.1977 98.8296 56.2253 98.6886C58.2445 98.5476 60.4189 98.5476 62.4381 98.5476C63.9913 98.5476 65.5445 98.5476 67.0977 98.6886C67.0977 98.5476 67.0977 98.2656 67.0977 98.1247C64.3019 97.9837 61.8168 97.8427 59.6424 97.8427ZM73.6211 74.4394C75.3296 74.5804 76.8828 74.5804 78.436 74.7214L79.2126 74.0165C77.0381 74.0165 74.8636 73.8755 72.6892 73.5935L73.6211 74.4394ZM77.5041 46.2427C58.8658 50.7542 44.5764 51.4591 38.5189 51.4591C37.8977 51.4591 37.2764 51.4591 36.8104 51.4591C36.8104 52.023 36.9658 52.587 36.9658 53.0099C38.053 53.0099 39.2955 53.1509 40.3828 53.1509C60.7296 53.1509 78.9019 45.9607 96.7636 43.987C99.7147 43.705 102.355 43.564 104.685 43.564C111.83 43.564 116.179 44.8329 118.508 46.1017C118.508 45.8197 118.508 45.5378 118.508 45.2558C115.247 43.987 109.966 43.0001 102.976 43.0001C95.987 42.8591 87.2892 43.846 77.5041 46.2427ZM68.3402 69.787L69.5828 70.7738C69.7381 70.7738 70.0487 70.9148 70.2041 70.9148C73.6211 71.4788 77.6594 71.6197 81.6977 71.6197L83.0955 70.3509C81.853 70.3509 80.4551 70.4919 79.0572 70.4919C75.7955 70.3509 72.0679 70.2099 68.3402 69.787ZM64.4572 85.8591C64.4572 85.5771 64.3019 85.1542 64.3019 84.8722C62.5934 84.7312 60.7296 84.7312 59.1764 84.7312C47.3721 84.7312 38.3636 87.4099 34.17 88.9607C34.17 89.2427 34.17 89.6656 34.3253 89.9476C43.6445 86.705 51.0998 85.5771 57.7785 85.5771C60.1083 85.5771 62.2828 85.5771 64.4572 85.8591ZM96.453 100.239C94.1232 100.239 91.4828 100.239 88.8423 100.098C88.8423 100.239 88.8423 100.38 88.8423 100.521C91.9487 100.803 94.8998 100.944 97.8509 100.944C105.461 100.944 111.985 100.239 116.8 99.3935C116.8 99.2525 116.644 99.1115 116.644 98.8296C111.83 99.5345 104.996 100.239 96.453 100.239ZM76.1062 76.6952L77.1934 75.7083C76.5721 75.7083 75.7955 75.8493 75.1743 75.8493L76.1062 76.6952ZM64.3019 69.082C61.3509 68.5181 58.3998 67.8132 55.4487 66.6853C45.5083 63.1607 39.7615 61.7509 36.4998 61.046C36.3445 61.7509 36.3445 62.3148 36.1892 63.0197C36.4998 63.0197 36.8104 63.0197 37.1211 63.0197C44.1104 63.0197 54.0509 67.2493 64.3019 69.787C64.3019 69.505 64.3019 69.223 64.3019 69.082ZM64.1466 83.4624C64.1466 83.0394 63.9913 82.7575 63.9913 82.3345C59.487 81.7706 55.6041 81.4886 52.0317 81.4886C42.7126 81.4886 36.6551 83.1804 34.0147 84.1673C34.0147 85.2952 34.0147 86.1411 34.0147 87.1279C41.936 84.1673 50.0126 83.3214 57.0019 83.3214C59.6424 83.1804 61.9721 83.3214 64.1466 83.4624ZM34.0147 80.9247C38.3636 80.0788 42.5572 79.6558 46.7509 79.6558C52.4977 79.6558 58.0892 80.3607 63.836 80.9247C63.836 80.5017 63.836 80.0788 63.6806 79.6558C57.3126 78.5279 51.7211 78.105 46.9062 78.105C41.47 78.105 37.1211 78.6689 34.0147 79.2329C34.0147 79.9378 34.0147 80.3607 34.0147 80.9247ZM34.17 77.1181C37.2764 76.5542 40.5381 76.2722 43.6445 76.2722C50.9445 76.2722 58.0892 77.5411 63.6806 78.6689C63.6806 78.246 63.6806 77.682 63.6806 77.2591C54.8275 75.5673 48.1487 75.0034 43.0232 75.0034C39.2955 75.0034 36.3445 75.2853 34.17 75.7083C34.17 76.1312 34.17 76.5542 34.17 77.1181ZM63.836 75.0034C62.4381 74.7214 61.0402 74.4394 59.487 74.0165C50.4785 71.7607 43.9551 71.1968 39.6062 71.1968C37.4317 71.1968 35.8785 71.3378 34.7913 71.4788C34.7913 71.7607 34.636 72.1837 34.636 72.4656C36.6551 72.1837 38.519 72.1837 40.3828 72.1837C48.9253 72.1837 56.2253 74.5804 63.836 76.1312C63.6806 75.7083 63.836 75.4263 63.836 75.0034ZM44.4211 42.8591C43.7998 42.8591 43.3338 42.8591 42.8679 42.8591V42.5771C42.8679 42.5771 51.5658 41.1673 58.3998 41.1673C59.1764 41.1673 59.953 41.1673 60.7296 41.1673C63.37 41.3083 66.6317 41.3083 69.5828 41.3083C72.9998 41.3083 75.7955 41.3083 75.7955 41.3083V41.5902C75.7955 41.5902 65.6998 43.1411 56.8466 43.1411C53.1189 43.282 47.9934 42.8591 44.4211 42.8591ZM36.0338 45.6788C36.0338 45.8197 36.0338 45.8197 36.0338 45.9607C43.9551 44.6919 59.0211 44.4099 64.3019 43.987C70.0487 43.564 77.5041 42.0132 79.5232 41.5902C80.9211 41.3083 84.0275 40.6034 85.8913 40.1804C84.3381 40.1804 81.6977 40.3214 78.436 40.3214C73.9317 40.3214 68.1849 40.1804 62.1275 39.7575C60.5743 39.6165 59.1764 39.6165 57.7785 39.6165C47.6828 39.6165 39.9168 42.0132 35.5679 43.705C35.5679 44.1279 35.7232 44.5509 35.7232 44.9738C37.7424 44.2689 41.1594 43.423 44.887 43.423C45.353 43.423 45.819 43.423 46.1296 43.423C48.77 43.564 50.9445 43.705 52.4977 43.705C54.0509 43.705 54.9828 43.705 55.4487 43.564H55.6041V43.846C55.6041 43.846 55.4487 43.846 55.2934 43.846C53.7402 43.987 41.3147 44.8329 36.0338 45.6788ZM57.6232 70.2099C45.9743 66.2624 38.8296 65.6984 36.0338 65.6984C35.8785 65.6984 35.7232 65.6984 35.7232 65.6984C35.5679 66.5443 35.4126 67.5312 35.2572 68.5181C36.4998 68.3771 37.7424 68.3771 38.8296 68.3771C45.8189 68.3771 51.4104 70.3509 59.1764 72.4656C60.5743 72.8886 62.2828 73.1706 63.9913 73.4525C63.9913 73.0296 63.9913 72.6066 64.1466 72.1837C61.9721 71.6197 59.7977 71.0558 57.6232 70.2099ZM71.2913 50.6132C55.9147 53.9968 45.1977 54.4197 40.2275 54.4197C38.3636 54.4197 37.2764 54.2788 37.2764 54.2788C37.2764 54.2788 37.1211 54.2788 36.8104 54.2788C36.8104 54.4197 36.8104 54.7017 36.8104 54.8427C38.8296 54.9837 40.6934 54.9837 42.4019 54.9837C56.536 54.9837 64.6126 52.446 83.5615 49.9083C87.4445 49.3443 91.0168 49.2034 94.4338 49.2034C106.704 49.2034 115.247 52.023 118.042 53.1509C118.042 52.7279 118.042 52.305 118.198 51.7411C110.276 48.9214 103.132 47.5115 94.7445 47.5115C88.0658 47.5115 80.6104 48.4984 71.2913 50.6132Z" fill="#65AFBC"/>
<path fill-rule="evenodd" clip-rule="evenodd" d="M21.4338 131.397C21.7445 134.639 22.0551 136.613 22.0551 137.318C22.3658 139.715 22.5211 141.548 22.8317 142.816C22.987 144.085 23.2977 145.777 23.6083 147.892L22.3658 147.751H21.1232C20.9679 146.2 20.8126 144.649 20.6573 143.098C20.5019 141.689 20.3466 140.138 20.1913 138.728C20.036 137.318 19.8807 136.19 19.7253 135.203C18.6381 137.036 17.7062 138.446 16.9296 139.856C15.9977 141.407 15.2211 142.675 14.5998 143.803C13.9785 145.072 13.3572 146.2 12.736 147.328H12.4253L11.0275 144.649C10.4062 143.38 9.78491 142.393 9.31895 141.548C8.85299 140.702 8.23172 139.574 7.45512 138.305C6.83385 137.318 6.21257 136.19 5.59129 135.203C5.28065 137.459 4.97002 139.856 4.65938 142.111C4.34874 144.508 4.19342 146.341 4.19342 147.61H3.2615H2.32959C2.64023 145.495 3.2615 142.534 3.72746 138.728C4.34874 134.921 4.65938 132.384 4.8147 131.115H5.43597C6.36789 132.807 7.14448 134.075 7.76576 135.203C8.54236 136.472 9.31895 137.882 10.2509 139.433C11.3381 141.125 12.27 142.675 13.0466 143.803C15.5317 139.574 18.1721 135.344 20.6573 131.256H21.4338V131.397Z" fill="#274249"/>
<path fill-rule="evenodd" clip-rule="evenodd" d="M34.1703 134.216L31.2192 140.42H37.1214L34.1703 134.216ZM43.0235 147.892L41.6256 147.751H40.2277C39.6065 146.059 38.9852 144.79 38.6746 143.803C38.3639 143.098 38.0533 142.393 37.432 141.266H30.7533C29.666 143.662 29.2001 144.931 29.0448 145.213C28.7341 145.918 28.4235 146.764 28.1129 147.751H27.1809H26.249L34.4809 131.115H35.1022L43.0235 147.892Z" fill="#274249"/>
<path fill-rule="evenodd" clip-rule="evenodd" d="M49.2361 139.433C49.2361 139.433 49.5467 139.433 50.0127 139.433C50.168 139.433 50.3233 139.433 50.4786 139.433H50.9446C51.0999 139.433 51.2552 139.433 51.4105 139.433C51.5659 139.433 51.7212 139.433 51.8765 139.433C53.1191 139.292 54.2063 138.869 54.9829 138.164C55.7595 137.459 56.0701 136.613 56.0701 135.485C56.0701 134.639 55.9148 133.934 55.4488 133.37C54.9829 132.806 54.3616 132.383 53.7403 132.383C53.1191 132.383 52.6531 132.242 52.1871 132.242C51.8765 132.242 51.5659 132.242 51.2552 132.242C50.9446 132.242 50.4786 132.242 50.168 132.242C49.8574 132.242 49.5467 132.242 49.2361 132.242V139.433ZM49.2361 147.892L47.9935 147.751H46.751V131.396H51.5659C54.2063 131.396 55.9148 131.678 56.8467 132.242C57.7786 132.806 58.3999 133.793 58.3999 135.344C58.3999 136.754 57.934 137.882 57.002 138.587C56.0701 139.292 54.6723 139.856 52.8084 140.137C52.6531 140.137 52.3425 140.278 51.8765 140.278C51.4106 140.278 51.2552 140.278 51.2552 140.278C50.7893 140.278 50.4786 140.278 50.168 140.278C49.8574 140.278 49.5467 140.278 49.2361 140.278V147.892Z" fill="#274249"/>
<path fill-rule="evenodd" clip-rule="evenodd" d="M70.3595 136.754L68.0297 138.869C70.2042 141.124 72.3787 143.239 74.3978 145.495L76.5723 147.892V148.033L75.1744 147.892H73.6212C73.3106 147.469 72.9999 147.187 72.6893 146.764C72.3787 146.341 72.068 146.059 71.7574 145.636L66.1659 139.574C66.0106 139.574 66.0106 139.433 65.8553 139.433H65.6999V147.892L64.4574 147.751H63.2148V131.396H64.4574H65.6999V138.869C65.6999 138.869 65.8553 139.01 66.0106 138.869C66.1659 138.869 66.3212 138.728 66.4765 138.728C66.6319 138.587 66.9425 138.446 67.4085 138.023C67.5638 137.882 67.7191 137.741 67.8744 137.6L74.3978 131.537H75.4851H76.5723L70.3595 136.754Z" fill="#274249"/>
<path fill-rule="evenodd" clip-rule="evenodd" d="M83.2512 138.587H87.2895C87.6001 138.587 88.0661 138.587 88.6873 138.587C89.3086 138.587 89.6193 138.587 89.7746 138.587L89.6193 139.151L89.7746 139.855C89.4639 139.855 88.998 139.856 88.3767 139.715C87.7554 139.715 87.4448 139.574 87.2895 139.574H83.2512V146.623C83.8725 146.623 84.8044 146.623 86.0469 146.623C87.2895 146.623 88.0661 146.623 88.0661 146.623C88.532 146.623 88.998 146.623 89.1533 146.623C89.3086 146.623 89.7746 146.482 90.5512 146.482L90.3959 147.187L90.5512 147.892H80.9214V131.396H90.3959L90.2405 132.101L90.3959 132.806C89.9299 132.665 89.4639 132.665 89.1533 132.524C88.8427 132.524 88.3767 132.383 88.0661 132.383H83.4065V138.587H83.2512Z" fill="#274249"/>
<path fill-rule="evenodd" clip-rule="evenodd" d="M101.734 147.892L100.491 147.751H99.2488V132.524C97.8509 132.524 96.919 132.524 96.2977 132.524C95.6764 132.524 94.7445 132.665 93.502 132.806L93.6573 132.101L93.502 131.396H107.17L107.015 132.101L107.17 132.806C106.549 132.806 105.617 132.665 104.685 132.665C103.753 132.665 102.666 132.524 101.579 132.524V147.892H101.734Z" fill="#274249"/>
<path fill-rule="evenodd" clip-rule="evenodd" d="M114.004 139.433C114.004 139.433 114.315 139.433 114.781 139.433C114.936 139.433 115.091 139.433 115.247 139.433H115.713C115.868 139.433 116.023 139.433 116.179 139.433C116.334 139.433 116.489 139.433 116.645 139.433C117.887 139.292 118.974 138.869 119.751 138.164C120.528 137.459 120.838 136.613 120.838 135.485C120.838 134.639 120.683 133.934 120.217 133.37C119.751 132.806 119.13 132.383 118.508 132.383C117.887 132.383 117.421 132.242 116.955 132.242C116.645 132.242 116.334 132.242 116.023 132.242C115.557 132.242 115.247 132.242 114.936 132.242C114.625 132.242 114.315 132.242 114.004 132.242V139.433ZM114.004 147.892L112.762 147.751H111.519V131.396H116.334C118.974 131.396 120.683 131.678 121.615 132.242C122.547 132.806 123.168 133.793 123.168 135.344C123.168 136.754 122.702 137.882 121.77 138.587C120.838 139.292 119.44 139.856 117.576 140.137C117.421 140.137 117.111 140.278 116.645 140.278C116.334 140.278 116.023 140.278 116.023 140.278C115.557 140.278 115.247 140.278 114.936 140.278C114.625 140.278 114.315 140.278 114.004 140.278V147.892Z" fill="#65AFBC"/>
<path fill-rule="evenodd" clip-rule="evenodd" d="M128.138 131.396C128.138 131.396 128.294 131.396 128.604 131.396C128.759 131.396 129.07 131.396 129.381 131.396H130.623V143.944H130.934C130.934 143.944 131.245 143.662 131.866 143.098C132.176 142.816 132.953 142.111 134.04 140.983C134.972 140.137 135.749 139.292 136.37 138.587C137.147 137.741 138.079 136.754 139.321 135.485C139.321 135.485 140.253 134.498 141.962 132.665C142.738 131.819 143.049 131.396 143.049 131.396H144.291V147.892L143.049 147.751H141.806V134.639H141.34C141.03 134.921 140.719 135.203 140.564 135.485C139.942 136.19 139.166 136.895 138.545 137.6C137.302 138.728 136.525 139.715 135.749 140.419C134.351 141.829 133.419 142.957 132.642 143.803C131.711 144.79 130.934 145.636 130.313 146.482C129.691 147.187 129.225 147.751 129.07 147.892H128.294V131.396H128.138Z" fill="#65AFBC"/>
<path fill-rule="evenodd" clip-rule="evenodd" d="M85.8912 107.711C86.9785 104.892 87.1338 103.059 87.1338 101.508C87.1338 101.367 87.1338 101.085 87.1338 100.944C87.1338 100.521 86.9785 100.239 86.9785 99.8164C86.8232 98.9705 86.8232 98.2655 86.6678 97.4196C85.5806 89.8065 83.8721 75.4262 86.2019 69.7869L84.3381 71.4787C84.0274 74.0164 83.5615 78.6688 83.8721 81.9114C84.3381 86.5639 84.6487 95.0229 85.5806 99.3934C86.5125 103.482 82.1636 114.62 83.0955 121.105C83.5615 121.105 84.0274 121.105 84.4934 121.105C84.3381 118.99 84.3381 112.223 85.8912 107.711ZM87.9104 107.852C87.7551 107.007 87.7551 106.161 87.5998 105.315C87.1338 108.275 85.7359 111.377 85.4253 113.915C85.1147 116.17 86.0466 119.272 86.6678 120.964C87.2891 120.964 87.9104 120.964 88.5317 120.964C87.7551 119.836 86.9785 118.003 86.6678 115.466C86.3572 112.364 87.4444 110.108 87.9104 107.852ZM83.7168 103.059C85.4253 97.4196 83.2508 88.6787 82.0083 81.3475C81.387 77.6819 81.5423 75.2852 81.853 73.7344L80.4551 75.0032C80.4551 77.4 80.7657 82.1934 82.3189 87.4098C84.6487 95.7278 82.9402 103.2 82.0083 107.148C81.0764 110.672 80.1444 115.748 81.2317 120.964C81.5423 120.964 81.853 120.964 82.1636 120.964C81.5423 117.157 82.3189 107.852 83.7168 103.059ZM69.8934 108.134C70.204 104.187 70.204 99.8164 70.0487 95.5869C69.7381 91.3573 68.3402 81.2065 68.3402 76.1311C68.3402 74.0164 68.3402 72.0426 68.4955 70.4918L68.0295 69.5049C68.0295 69.6459 68.0295 69.7869 68.0295 70.0688C68.0295 70.2098 68.0295 70.3508 68.0295 70.3508C68.0295 70.4918 68.0295 70.7737 68.0295 70.9147C68.0295 71.0557 68.0295 71.1967 68.0295 71.3377C68.0295 71.4787 68.0295 71.7606 68.0295 71.9016C68.0295 72.1836 68.0295 72.6065 68.0295 73.0295C68.0295 73.1705 68.0295 73.4524 68.0295 73.5934C68.0295 73.8754 68.0295 74.1573 68.0295 74.4393C68.0295 74.5803 68.0295 74.8623 68.0295 75.0032C68.0295 75.2852 68.0295 75.7082 68.0295 75.9901C68.0295 76.1311 68.0295 76.4131 68.0295 76.5541C68.0295 77.118 68.0295 77.541 68.0295 78.1049C68.0295 78.2459 68.0295 78.3869 68.0295 78.5278C68.0295 78.9508 68.0295 79.3737 68.0295 79.9377C68.0295 80.0787 68.0295 80.3606 68.0295 80.5016C68.0295 80.9246 68.0295 81.3475 68.0295 81.9114C68.0295 82.0524 68.0295 82.3344 68.0295 82.4754C68.0295 83.1803 68.0295 83.7442 68.1849 84.4491C68.1849 84.5901 68.1849 84.5901 68.1849 84.7311C68.1849 85.295 68.3402 85.859 68.3402 86.5639C68.3402 86.8459 68.3402 86.9869 68.3402 87.2688C68.3402 87.8328 68.4955 88.2557 68.4955 88.8196C68.4955 89.1016 68.4955 89.2426 68.4955 89.5246C68.6508 90.2295 68.6508 91.0754 68.8061 91.7803C70.5146 105.174 68.8061 107.007 68.1849 113.069C67.7189 117.58 63.8359 118.99 58.5551 119.695C24.3849 121.105 2.48486 127.026 2.48486 127.026L2.64018 128.577C24.6955 123.643 45.8189 121.669 64.7678 121.105H68.8061C68.8061 118.003 69.5827 111.518 69.8934 108.134ZM79.9891 110.672C81.5423 101.226 83.4061 96.0098 82.0083 89.8065C81.0764 85.718 78.4359 80.7836 78.7466 76.5541L77.1934 78.1049C77.3487 79.6557 77.97 82.6164 79.3678 84.8721C80.921 87.5508 81.2317 97.1377 80.7657 100.239C80.2998 103.059 77.0381 115.888 78.5912 120.964C79.2125 120.964 79.6785 120.964 80.2998 120.964C79.6785 119.272 79.2125 115.888 79.9891 110.672ZM70.3593 74.0164C70.3593 73.8754 70.3593 73.8754 70.3593 73.8754L69.4274 72.8885C69.2721 73.3114 66.787 78.2459 70.67 92.9082C74.3976 106.725 70.5146 116.734 69.1168 121.246C69.5827 121.246 69.8934 121.246 70.3593 121.246C71.1359 118.426 72.8444 111.659 73.1551 107.429C73.4657 101.649 74.3976 93.6131 71.7572 88.1147C69.2721 82.4754 69.2721 77.259 70.3593 74.0164ZM76.8827 116.029C77.504 111.8 79.9891 103.2 79.8338 96.8557C79.6785 91.2164 76.1061 86.1409 75.7955 78.9508L74.8636 77.9639C74.7083 83.3213 78.2806 91.7803 78.7466 95.4459C79.2125 99.9573 78.1253 103.623 78.1253 103.623C77.97 98.4065 72.8444 81.2065 72.6891 79.2328C72.6891 78.3869 72.8444 77.4 73.1551 76.4131L72.2232 75.4262C71.4466 76.5541 70.8253 78.9508 71.4466 80.9246C72.2232 83.7442 73.9317 89.5246 74.7083 94.459C75.4849 99.3934 75.9508 99.3934 76.1061 105.174C76.1061 109.967 75.6402 117.298 75.9508 121.105C76.4168 121.105 76.8827 121.105 77.3487 121.105C76.8827 119.836 76.5721 118.003 76.8827 116.029ZM95.987 119.836C94.4338 119.554 92.7253 119.695 91.6381 118.849C89.4636 117.721 88.5317 118.567 88.221 114.197C88.0657 112.928 88.0657 112.082 88.0657 110.672C88.0657 112.646 87.7551 114.338 87.9104 115.888C88.3763 118.285 88.8423 119.836 89.7742 121.105C92.2593 121.105 94.7444 121.246 96.9189 121.387C125.653 122.797 144.602 128.154 144.602 128.154L144.913 126.744C127.517 122.515 110.898 120.541 95.987 119.836Z" fill="#274249"/>
</svg>
