<svg width="28" height="24" viewBox="0 0 28 24" fill="none" xmlns="http://www.w3.org/2000/svg">
<path d="M25.8288 1C26.63 1 27.2345 1.70884 26.9112 3.02729L22.9895 21.6698C22.7154 22.9954 21.9212 23.3143 20.8248 22.6976L11.4703 15.7297C11.434 15.7035 11.4045 15.6689 11.3841 15.6288C11.3637 15.5888 11.3531 15.5444 11.3531 15.4994C11.3531 15.4543 11.3637 15.4099 11.3841 15.3699C11.4045 15.3298 11.434 15.2952 11.4703 15.269L22.2726 5.43026C22.7646 4.99078 22.1672 4.77813 21.5206 5.17508L7.96325 13.8017C7.92214 13.8287 7.87545 13.846 7.82675 13.8521C7.77804 13.8583 7.72858 13.8531 7.68213 13.8371L1.92606 12.0012C0.646939 11.6255 0.646939 10.7395 2.21422 10.1086L25.2455 1.14886C25.4281 1.06048 25.6265 1.00987 25.8288 1Z" stroke="#4F8398" stroke-width="2" stroke-linecap="round" stroke-linejoin="round"/>
</svg>
