<svg width="45" height="44" viewBox="0 0 45 44" fill="none" xmlns="http://www.w3.org/2000/svg">
<path d="M35.625 14.667C38.7316 14.667 41.25 12.2046 41.25 9.16699C41.25 6.12943 38.7316 3.66699 35.625 3.66699C32.5184 3.66699 30 6.12943 30 9.16699C30 12.2046 32.5184 14.667 35.625 14.667Z" stroke="#C24343" stroke-width="4"/>
<path d="M13.125 25.667H30" stroke="#4F8398" stroke-width="4" stroke-linecap="round"/>
<path d="M13.125 32.083H24.375" stroke="#4F8398" stroke-width="4" stroke-linecap="round"/>
<path d="M3.75 22.0003C3.75 30.6427 3.75 34.964 6.49588 37.6487C9.24174 40.3337 13.6612 40.3337 22.5 40.3337C31.3387 40.3337 35.7583 40.3337 38.5041 37.6487C41.25 34.964 41.25 30.6427 41.25 22.0003V19.2503M25.3125 3.66699H22.5C13.6612 3.66699 9.24174 3.66699 6.49588 6.35185C4.67012 8.13704 4.05832 10.6457 3.85331 14.667" stroke="#4F8398" stroke-width="4" stroke-linecap="round"/>
</svg>
