<svg width="45" height="44" viewBox="0 0 45 44" fill="none" xmlns="http://www.w3.org/2000/svg">
<path d="M35.625 14.6665C38.7316 14.6665 41.25 12.2041 41.25 9.1665C41.25 6.12894 38.7316 3.6665 35.625 3.6665C32.5184 3.6665 30 6.12894 30 9.1665C30 12.2041 32.5184 14.6665 35.625 14.6665Z" stroke="#4F8398" stroke-width="4"/>
<path d="M13.125 25.6665H30" stroke="#4F8398" stroke-width="4" stroke-linecap="round"/>
<path d="M13.125 32.0835H24.375" stroke="#4F8398" stroke-width="4" stroke-linecap="round"/>
<path d="M3.75 21.9998C3.75 30.6422 3.75 34.9635 6.49588 37.6483C9.24174 40.3332 13.6612 40.3332 22.5 40.3332C31.3387 40.3332 35.7583 40.3332 38.5041 37.6483C41.25 34.9635 41.25 30.6422 41.25 21.9998V19.2498M25.3125 3.6665H22.5C13.6612 3.6665 9.24174 3.6665 6.49588 6.35137C4.67012 8.13656 4.05832 10.6452 3.85331 14.6665" stroke="#4F8398" stroke-width="4" stroke-linecap="round"/>
</svg>
