<svg width="49" height="49" viewBox="0 0 49 49" fill="none" xmlns="http://www.w3.org/2000/svg">
<path d="M24.5 20.4165V40.8332M6.125 30.6248H42.875M6.125 20.4165H42.875M12.6583 40.8332H36.3417C38.6285 40.8332 39.7721 40.8332 40.6455 40.3881C41.4138 39.9967 42.0385 39.3719 42.4299 38.6037C42.875 37.7302 42.875 36.5867 42.875 34.2998V14.6998C42.875 12.413 42.875 11.2695 42.4299 10.396C42.0385 9.6277 41.4138 9.00304 40.6455 8.61157C39.7721 8.1665 38.6285 8.1665 36.3417 8.1665H12.6583C10.3715 8.1665 9.22801 8.1665 8.35454 8.61157C7.5862 9.00304 6.96153 9.6277 6.57006 10.396C6.125 11.2695 6.125 12.4129 6.125 14.6998V34.2998C6.125 36.5867 6.125 37.7302 6.57006 38.6037C6.96153 39.3719 7.5862 39.9967 8.35454 40.3881C9.22801 40.8332 10.3714 40.8332 12.6583 40.8332Z" stroke="#4F8398" stroke-width="4" stroke-linecap="round" stroke-linejoin="round"/>
</svg>
